<svg width="238" height="37" viewBox="0 0 238 37" fill="none" xmlns="http://www.w3.org/2000/svg">
<path d="M49.3801 10.9904V0H38.3862L26.0947 15.261V6.45835H15.1016L0 25.2692V36.2603H10.9931L18.0343 27.49V36.2603H29.0274L36.3926 27.1154V36.2603H47.3858L49.5763 33.5848V23.0682H39.6524L49.3801 10.9904Z" fill="url(#paint0_linear_2493_5975)"/>
<path d="M88.4995 7.5795V36.26H82.8863V17.6586L74.8148 30.9746H74.1593L66.0877 17.6996V36.26H60.4336V7.5795H66.2516L74.487 21.1413L82.6815 7.5795H88.4995Z" fill="white"/>
<path d="M96.6296 28.1885C97.3671 30.8926 99.6206 32.0399 102.407 32.0399C104.455 32.0399 106.094 31.1795 106.996 29.9913L111.257 32.4496C109.331 35.2357 106.258 36.8336 102.325 36.8336C95.4414 36.8336 91.0984 32.1218 91.0984 26.017C91.0984 19.9121 95.4824 15.2003 101.915 15.2003C107.979 15.2003 112.281 19.9941 112.281 26.017C112.281 26.7954 112.199 27.492 112.076 28.1885H96.6296ZM96.5476 24.0913H106.996C106.34 21.1413 104.127 19.9531 101.915 19.9531C99.0879 19.9531 97.1622 21.4691 96.5476 24.0913Z" fill="white"/>
<path d="M125.655 20.8545H121.025V29.3767C121.025 31.5892 122.623 31.6301 125.655 31.4663V36.26C118.239 37.0794 115.739 34.9079 115.739 29.3767V20.8545H112.175V15.7739H115.739V11.6357L121.025 10.0378V15.7739H125.655V20.8545Z" fill="white"/>
<path d="M133.553 19.2975C134.618 16.5114 137.199 15.3642 139.78 15.3642V21.2642C137.035 20.9364 133.553 22.1656 133.553 26.4677V36.26H128.267V15.7739H133.553V19.2975Z" fill="white"/>
<path d="M144.06 13.3156C142.298 13.3156 140.823 11.8406 140.823 10.0788C140.823 8.31699 142.298 6.80103 144.06 6.80103C145.862 6.80103 147.337 8.31699 147.337 10.0788C147.337 11.8406 145.862 13.3156 144.06 13.3156ZM141.437 36.26V15.7739H146.723V36.26H141.437Z" fill="white"/>
<path d="M159.878 36.8336C153.65 36.8336 149.061 32.1218 149.061 26.017C149.061 19.9121 153.65 15.2003 159.878 15.2003C163.893 15.2003 167.376 17.3309 169.056 20.4857L164.508 23.1489C163.688 21.4691 161.926 20.4038 159.837 20.4038C156.682 20.4038 154.347 22.7392 154.347 26.017C154.347 29.2538 156.682 31.5892 159.837 31.5892C161.967 31.5892 163.729 30.5649 164.549 28.885L169.137 31.5072C167.376 34.7031 163.893 36.8336 159.878 36.8336Z" fill="white"/>
<path d="M202.197 21.3874C205.065 22.4937 207.113 25.1569 207.113 28.4347C207.113 32.7777 203.631 36.2603 199.288 36.2603H186.914V7.57983H198.345C202.524 7.57983 205.884 10.9805 205.884 15.1187C205.884 17.9048 204.409 20.1993 202.197 21.3874ZM198.345 9.62844H189.086V20.609H198.345C201.295 20.609 203.713 18.1506 203.713 15.1187C203.713 12.0868 201.295 9.62844 198.345 9.62844ZM199.288 34.2117C202.402 34.2117 204.942 31.6305 204.942 28.4347C204.942 25.2388 202.402 22.6576 199.288 22.6576H189.086V34.2117H199.288Z" fill="white"/>
<path d="M211.622 10.8166C210.721 10.8166 209.983 10.0791 209.983 9.17775C209.983 8.31733 210.721 7.57983 211.622 7.57983C212.524 7.57983 213.261 8.31733 213.261 9.17775C213.261 10.0791 212.524 10.8166 211.622 10.8166ZM210.598 36.2603V15.7743H212.646V36.2603H210.598Z" fill="white"/>
<path d="M226.909 36.711C220.927 36.711 216.133 32.0812 216.133 26.0173C216.133 19.9534 220.927 15.3236 226.909 15.3236C232.85 15.3236 237.644 19.9534 237.644 26.0173C237.644 32.0812 232.85 36.711 226.909 36.711ZM226.909 34.7444C231.785 34.7444 235.554 30.893 235.554 26.0173C235.554 21.1416 231.785 17.2902 226.909 17.2902C222.033 17.2902 218.223 21.1416 218.223 26.0173C218.223 30.893 222.033 34.7444 226.909 34.7444Z" fill="white"/>
<g clip-path="url(#clip0_2493_5975)">
<path d="M178.914 36.4652H175.156V31.9583H179.663L179.596 35.6194L178.914 36.4652Z" fill="#0129F8"/>
</g>
<defs>
<linearGradient id="paint0_linear_2493_5975" x1="44.1682" y1="-10.1691" x2="24.8927" y2="27.4659" gradientUnits="userSpaceOnUse">
<stop stop-color="#00D1FF"/>
<stop offset="1" stop-color="#0028F8"/>
</linearGradient>
<clipPath id="clip0_2493_5975">
<rect width="4.50694" height="4.50694" fill="white" transform="translate(175.156 31.9583)"/>
</clipPath>
</defs>
</svg>
