<svg width="257" height="37" viewBox="0 0 257 37" fill="none" xmlns="http://www.w3.org/2000/svg">
<path d="M48.7725 10.8552V0H37.9139L25.7736 15.0732V6.37888H14.9158L0 24.9583V35.8142H10.8578L17.8124 27.1518V35.8142H28.6702L35.9449 26.7817V35.8142H46.8027L48.9663 33.1715V22.7843H39.1645L48.7725 10.8552Z" fill="url(#paint0_linear_2493_5965)"/>
<path d="M87.41 7.48642V35.814H81.8659V17.4416L73.8937 30.5937H73.2462L65.274 17.482V35.814H59.6895V7.48642H65.4359L73.57 20.8813L81.6636 7.48642H87.41Z" fill="white"/>
<path d="M95.4401 27.8418C96.1685 30.5127 98.3942 31.6458 101.146 31.6458C103.169 31.6458 104.788 30.796 105.678 29.6224L109.887 32.0505C107.985 34.8023 104.95 36.3806 101.065 36.3806C94.2665 36.3806 89.9769 31.7268 89.9769 25.697C89.9769 19.6673 94.307 15.0135 100.66 15.0135C106.65 15.0135 110.899 19.7482 110.899 25.697C110.899 26.4659 110.818 27.1539 110.697 27.8418H95.4401ZM95.3591 23.795H105.678C105.031 20.8813 102.846 19.7078 100.66 19.7078C97.8682 19.7078 95.9662 21.2051 95.3591 23.795Z" fill="white"/>
<path d="M124.108 20.5981H119.535V29.0154C119.535 31.2007 121.113 31.2411 124.108 31.0793V35.814C116.783 36.6234 114.315 34.4786 114.315 29.0154V20.5981H110.794V15.58H114.315V11.4928L119.535 9.9145V15.58H124.108V20.5981Z" fill="white"/>
<path d="M131.909 19.0603C132.961 16.3084 135.51 15.1753 138.06 15.1753V21.0027C135.348 20.679 131.909 21.893 131.909 26.1422V35.814H126.688V15.58H131.909V19.0603Z" fill="white"/>
<path d="M142.287 13.1519C140.546 13.1519 139.09 11.6951 139.09 9.95497C139.09 8.21485 140.546 6.71753 142.287 6.71753C144.067 6.71753 145.524 8.21485 145.524 9.95497C145.524 11.6951 144.067 13.1519 142.287 13.1519ZM139.697 35.814V15.58H144.917V35.814H139.697Z" fill="white"/>
<path d="M157.91 36.3806C151.759 36.3806 147.226 31.7268 147.226 25.697C147.226 19.6673 151.759 15.0135 157.91 15.0135C161.876 15.0135 165.316 17.1178 166.975 20.2338L162.483 22.8643C161.674 21.2051 159.933 20.1529 157.87 20.1529C154.754 20.1529 152.447 22.4596 152.447 25.697C152.447 28.894 154.754 31.2007 157.87 31.2007C159.974 31.2007 161.714 30.189 162.523 28.5298L167.056 31.1197C165.316 34.2762 161.876 36.3806 157.91 36.3806Z" fill="white"/>
<path d="M211.162 22.6217V23.7143C211.162 30.5534 205.942 36.2594 197.484 36.2594C188.702 36.2594 182.592 29.7441 182.592 21.6505C182.592 13.5569 188.702 7.0415 197.322 7.0415C202.583 7.0415 207.156 9.79333 209.503 13.8806L207.601 15.0137C205.739 11.4525 201.774 9.10537 197.322 9.10537C189.876 9.10537 184.737 14.69 184.737 21.6505C184.737 28.6109 189.876 34.1955 197.484 34.1955C204.364 34.1955 208.532 29.9464 208.977 24.6451H196.958V22.6217H211.162Z" fill="white"/>
<path d="M223.822 15.1351C229.973 15.1351 233.817 20.2341 233.817 25.7782C233.817 26.1019 233.777 26.4257 233.777 26.7494H215.445C215.93 31.3223 219.411 34.3169 224.024 34.3169C227.342 34.3169 229.851 32.7792 231.025 30.6343L232.806 31.6865C231.146 34.4383 227.99 36.2594 223.984 36.2594C217.752 36.2594 213.341 31.8079 213.341 25.6973C213.341 19.7485 217.63 15.1351 223.822 15.1351ZM223.822 17.0776C219.208 17.0776 215.85 20.2745 215.445 24.7665H231.713C231.268 19.8294 227.788 17.0776 223.822 17.0776Z" fill="white"/>
<path d="M246.398 36.2594C240.489 36.2594 235.754 31.6865 235.754 25.6973C235.754 19.708 240.489 15.1351 246.398 15.1351C252.265 15.1351 257 19.708 257 25.6973C257 31.6865 252.265 36.2594 246.398 36.2594ZM246.398 34.3169C251.213 34.3169 254.936 30.5129 254.936 25.6973C254.936 20.8816 251.213 17.0776 246.398 17.0776C241.582 17.0776 237.818 20.8816 237.818 25.6973C237.818 30.5129 241.582 34.3169 246.398 34.3169Z" fill="white"/>
<g clip-path="url(#clip0_2493_5965)">
<path d="M176.712 36.0164H173V31.5649H177.451L177.385 35.181L176.712 36.0164Z" fill="#1FCD50"/>
</g>
<defs>
<linearGradient id="paint0_linear_2493_5965" x1="6.62504" y1="36.6467" x2="32.9857" y2="0.81931" gradientUnits="userSpaceOnUse">
<stop stop-color="#1ECD4F"/>
<stop offset="1" stop-color="#00FFA3"/>
</linearGradient>
<clipPath id="clip0_2493_5965">
<rect width="4.45148" height="4.45148" fill="white" transform="translate(173 31.5649)"/>
</clipPath>
</defs>
</svg>
